<?xml version="1.0" encoding="UTF-8" standalone="no"?><!DOCTYPE svg PUBLIC "-//W3C//DTD SVG 1.1//EN" "http://www.w3.org/Graphics/SVG/1.1/DTD/svg11.dtd"><svg width="60" height="60" viewBox="0 0 60 60" version="1.1" xmlns="http://www.w3.org/2000/svg" xmlns:xlink="http://www.w3.org/1999/xlink" xml:space="preserve" style="fill-rule:evenodd;clip-rule:evenodd;stroke-linejoin:round;stroke-miterlimit:1.41421;"><path d="M39.654,45.747l-0.027,-0.02c-1.722,1.021 -3.572,1.807 -5.502,2.338l-0.563,4.21c-2.033,0.423 -4.11,0.606 -6.186,0.543l-1.288,-4.047c-1.993,-0.186 -3.952,-0.638 -5.825,-1.343l-2.93,3.075c-1.894,-0.852 -3.681,-1.925 -5.324,-3.196l1.337,-4.032c-1.503,-1.322 -2.822,-2.838 -3.923,-4.51l-4.178,0.766c-1.031,-1.803 -1.847,-3.722 -2.428,-5.715l3.451,-2.476c-0.439,-1.953 -0.615,-3.956 -0.523,-5.955l-3.83,-1.836c0.225,-2.065 0.693,-4.096 1.394,-6.051l4.248,0.025c0.792,-1.838 1.827,-3.561 3.077,-5.125l-2.019,-3.737c1.396,-1.538 2.968,-2.906 4.685,-4.075l3.421,2.517c1.721,-1.021 3.572,-1.807 5.502,-2.338l0.562,-4.21c2.034,-0.423 4.11,-0.606 6.186,-0.543l1.288,4.047c1.993,0.186 3.952,0.638 5.826,1.343l2.929,-3.075c1.894,0.852 3.681,1.925 5.324,3.196l-1.337,4.032c1.503,1.322 2.823,2.838 3.924,4.51l4.178,-0.766c1.031,1.803 1.846,3.722 2.428,5.715l-3.451,2.476c0.439,1.953 0.615,3.956 0.523,5.955l3.83,1.837c-0.226,2.064 -0.694,4.095 -1.395,6.05l-4.247,-0.025c-0.793,1.838 -1.828,3.561 -3.077,5.125l0.024,0.044c0.036,0.034 0.072,0.071 0.106,0.11l11.881,13.608c0.53,0.607 0.468,1.53 -0.139,2.06l-3.878,3.386c-0.607,0.53 -1.53,0.468 -2.061,-0.14l-11.881,-13.608c-0.041,-0.046 -0.078,-0.095 -0.112,-0.145ZM26.648,9.047c9.586,-0.842 18.052,6.257 18.894,15.842c0.842,9.586 -6.257,18.052 -15.843,18.894c-9.585,0.842 -18.051,-6.257 -18.893,-15.842c-0.842,-9.586 6.256,-18.052 15.842,-18.894ZM23.933,12.742c-5.364,1.664 -9.259,6.309 -9.962,11.881l3.551,0.448c0.527,-4.179 3.448,-7.663 7.471,-8.911l-1.06,-3.418Z" style="fill-opacity:0.2;"/></svg>